<svg width="250" height="250" viewBox="0 0 250 250" fill="none" xmlns="http://www.w3.org/2000/svg">
<rect width="250" height="250" rx="8" fill="#FF9000"/>
<path d="M95.9 63.5C95.9 67.9667 94.8667 72.0333 92.8 75.7C90.7333 79.3 87.6667 82.1667 83.6 84.3C79.6 86.4333 74.7333 87.5 69 87.5H60.2V110H38V39.2H69C77.6667 39.2 84.3 41.4 88.9 45.8C93.5667 50.2 95.9 56.1 95.9 63.5ZM66.5 70C71.1 70 73.4 67.8333 73.4 63.5C73.4 59.1667 71.1 57 66.5 57H60.2V70H66.5ZM177.441 110.7C170.775 110.7 164.641 109.133 159.041 106C153.508 102.867 149.108 98.5333 145.841 93C142.575 87.4667 140.941 81.2333 140.941 74.3C140.941 67.3667 142.575 61.1333 145.841 55.6C149.108 50.0667 153.508 45.7667 159.041 42.7C164.641 39.5667 170.775 38 177.441 38C184.108 38 190.208 39.5667 195.741 42.7C201.275 45.7667 205.641 50.0667 208.841 55.6C212.108 61.1333 213.741 67.3667 213.741 74.3C213.741 81.2333 212.108 87.4667 208.841 93C205.641 98.5333 201.241 102.867 195.641 106C190.108 109.133 184.041 110.7 177.441 110.7ZM177.441 90C181.841 90 185.241 88.6 187.641 85.8C190.041 82.9333 191.241 79.1 191.241 74.3C191.241 69.4333 190.041 65.6 187.641 62.8C185.241 59.9333 181.841 58.5 177.441 58.5C172.975 58.5 169.541 59.9333 167.141 62.8C164.741 65.6 163.541 69.4333 163.541 74.3C163.541 79.1 164.741 82.9333 167.141 85.8C169.541 88.6 172.975 90 177.441 90ZM73.6 210L60.3 184.6H60.2V210H38V139.2H71C76.7333 139.2 81.6333 140.233 85.7 142.3C89.7667 144.3 92.8 147.067 94.8 150.6C96.8667 154.067 97.9 158 97.9 162.4C97.9 167.133 96.5667 171.333 93.9 175C91.3 178.667 87.5333 181.3 82.6 182.9L98 210H73.6ZM60.2 169.8H69C71.1333 169.8 72.7333 169.333 73.8 168.4C74.8667 167.4 75.4 165.867 75.4 163.8C75.4 161.933 74.8333 160.467 73.7 159.4C72.6333 158.333 71.0667 157.8 69 157.8H60.2V169.8ZM187.792 210L167.192 179.3V210H144.992V139.2H167.192V169L187.492 139.2H212.592L188.192 173.1L214.192 210H187.792Z" fill="black"/>
</svg>
