<svg width="463" height="143" viewBox="0 0 463 143" fill="none" xmlns="http://www.w3.org/2000/svg">
<g clip-path="url(#clip0_2_2)">
<path d="M60.312 59.304C60.312 63.208 59.416 66.792 57.624 70.056C55.832 73.256 53.08 75.848 49.368 77.832C45.656 79.816 41.048 80.808 35.544 80.808H25.368V105H8.952V37.608H35.544C40.92 37.608 45.464 38.536 49.176 40.392C52.888 42.248 55.672 44.808 57.528 48.072C59.384 51.336 60.312 55.08 60.312 59.304ZM34.296 67.752C37.432 67.752 39.768 67.016 41.304 65.544C42.84 64.072 43.608 61.992 43.608 59.304C43.608 56.616 42.84 54.536 41.304 53.064C39.768 51.592 37.432 50.856 34.296 50.856H25.368V67.752H34.296ZM93.2423 105.768C87.9943 105.768 83.2583 104.648 79.0343 102.408C74.8743 100.168 71.5783 96.968 69.1463 92.808C66.7783 88.648 65.5943 83.784 65.5943 78.216C65.5943 72.712 66.8103 67.88 69.2422 63.72C71.6743 59.496 75.0023 56.264 79.2263 54.024C83.4503 51.784 88.1863 50.664 93.4343 50.664C98.6823 50.664 103.418 51.784 107.642 54.024C111.866 56.264 115.194 59.496 117.626 63.72C120.058 67.88 121.274 72.712 121.274 78.216C121.274 83.72 120.026 88.584 117.53 92.808C115.098 96.968 111.738 100.168 107.45 102.408C103.226 104.648 98.4903 105.768 93.2423 105.768ZM93.2423 91.56C96.3783 91.56 99.0343 90.408 101.21 88.104C103.45 85.8 104.57 82.504 104.57 78.216C104.57 73.928 103.482 70.632 101.306 68.328C99.1943 66.024 96.5703 64.872 93.4343 64.872C90.2343 64.872 87.5783 66.024 85.4663 68.328C83.3543 70.568 82.2983 73.864 82.2983 78.216C82.2983 82.504 83.3223 85.8 85.3703 88.104C87.4823 90.408 90.1063 91.56 93.2423 91.56ZM146.399 60.36C148.319 57.416 150.719 55.112 153.599 53.448C156.479 51.72 159.679 50.856 163.199 50.856V68.232H158.687C154.591 68.232 151.519 69.128 149.471 70.92C147.423 72.648 146.399 75.72 146.399 80.136V105H129.983V51.432H146.399V60.36ZM203.782 105L187.462 82.536V105H171.046V33.96H187.462V73.224L203.686 51.432H223.942L201.67 78.312L224.134 105H203.782Z" fill="white"/>
<rect x="242" width="221" height="143" rx="8" fill="#FF9000"/>
<path d="M293.88 50.856C300.024 50.856 304.952 52.904 308.664 57C312.376 61.032 314.232 66.6 314.232 73.704V105H297.912V75.912C297.912 72.328 296.984 69.544 295.128 67.56C293.272 65.576 290.776 64.584 287.64 64.584C284.504 64.584 282.008 65.576 280.152 67.56C278.296 69.544 277.368 72.328 277.368 75.912V105H260.952V33.96H277.368V58.632C279.032 56.264 281.304 54.376 284.184 52.968C287.064 51.56 290.296 50.856 293.88 50.856ZM378.536 51.432V105H362.12V97.704C360.456 100.072 358.184 101.992 355.304 103.464C352.488 104.872 349.352 105.576 345.896 105.576C341.8 105.576 338.184 104.68 335.048 102.888C331.912 101.032 329.48 98.376 327.752 94.92C326.024 91.464 325.16 87.4 325.16 82.728V51.432H341.48V80.52C341.48 84.104 342.408 86.888 344.264 88.872C346.12 90.856 348.616 91.848 351.752 91.848C354.952 91.848 357.48 90.856 359.336 88.872C361.192 86.888 362.12 84.104 362.12 80.52V51.432H378.536ZM406.743 59.016C408.279 56.52 410.487 54.504 413.367 52.968C416.247 51.432 419.543 50.664 423.255 50.664C427.671 50.664 431.671 51.784 435.255 54.024C438.839 56.264 441.655 59.464 443.703 63.624C445.815 67.784 446.871 72.616 446.871 78.12C446.871 83.624 445.815 88.488 443.703 92.712C441.655 96.872 438.839 100.104 435.255 102.408C431.671 104.648 427.671 105.768 423.255 105.768C419.479 105.768 416.183 105.032 413.367 103.56C410.551 102.024 408.343 100.008 406.743 97.512V105H390.327V33.96H406.743V59.016ZM430.167 78.12C430.167 74.024 429.015 70.824 426.711 68.52C424.471 66.152 421.687 64.968 418.359 64.968C415.095 64.968 412.311 66.152 410.007 68.52C407.767 70.888 406.647 74.12 406.647 78.216C406.647 82.312 407.767 85.544 410.007 87.912C412.311 90.28 415.095 91.464 418.359 91.464C421.623 91.464 424.407 90.28 426.711 87.912C429.015 85.48 430.167 82.216 430.167 78.12Z" fill="black"/>
</g>
<defs>
<clipPath id="clip0_2_2">
<rect width="463" height="143" fill="white"/>
</clipPath>
</defs>
</svg>
